<?xml version="1.0" encoding="utf-8"?>
<!-- Generator: Adobe Illustrator 22.1.0, SVG Export Plug-In . SVG Version: 6.00 Build 0)  -->
<svg version="1.1" id="Capa_2" xmlns="http://www.w3.org/2000/svg" xmlns:xlink="http://www.w3.org/1999/xlink" x="0px" y="0px"
	 viewBox="0 0 20 13" style="enable-background:new 0 0 20 13;" xml:space="preserve">
<style type="text/css">
	.st0{fill:#FF0000;}
</style>
<g transform="translate(0.000000,511.000000) scale(0.100000,-0.100000)">
	<path class="st0" d="M172.2,5097.9c-8.4-1.7-48.4-9.7-89.1-17.7c-80.9-16-76-14.9-76.4-18c-0.2-1.1,0-1.8,0.6-2.7
		c0.9-1.3,22-21.1,23-21.6c0.4-0.2,100.8,34.3,120.6,41.5c1.6,0.6,2.9,1,2.9,0.9c0-0.1-24.2-13.1-53.8-28.9l-53.8-28.7l-2.2-15.1
		c-2.1-14.2-2.2-15.1-1.6-16c0.3-0.5,1-1,1.5-1c0.6-0.1,5,1.8,12.9,5.4c6.6,3.1,12,5.6,12.1,5.5c0.1,0,4.5-4.1,9.9-9.1
		c8.8-8.2,9.9-9.1,11.3-9.3c1.2-0.2,1.8-0.1,2.8,0.6c0.7,0.5,4.9,5.3,9.5,10.8c6.9,8.3,53.9,64.6,79.9,95.7c4.1,4.9,7.4,9.1,7.4,9.5
		c0,0.5-0.4,0.8-1.1,0.9C187.9,5100.9,180.9,5099.6,172.2,5097.9z"/>
</g>
</svg>
