<?xml version="1.0" encoding="utf-8"?>
<!-- Generator: Adobe Illustrator 22.1.0, SVG Export Plug-In . SVG Version: 6.00 Build 0)  -->
<svg version="1.1" id="Capa_1" xmlns="http://www.w3.org/2000/svg" xmlns:xlink="http://www.w3.org/1999/xlink" x="0px" y="0px"
	 viewBox="0 0 20 13" style="enable-background:new 0 0 20 13;" xml:space="preserve">
<style type="text/css">
	.st0{fill:#3B59A8;}
	.st1{fill:#FFFFFF;}
</style>
<path class="st0" d="M15.2,12.4H5.6c-0.3,0-0.6-0.3-0.6-0.6V1.3C5,1,5.2,0.8,5.6,0.8h9.7c0.3,0,0.6,0.3,0.6,0.6v10.5
	C15.8,12.2,15.5,12.4,15.2,12.4z"/>
<g id="Layer_3" transform="matrix(1.7982054,0,0,1.8129643,376.63343,326.35613)">
	<path id="path3336" class="st1" d="M-202.3-173.4h-1v-2.5h-0.5v-0.8h0.5v-0.5c0-0.7,0.3-1.1,1.1-1.1h0.7v0.8h-0.4
		c-0.3,0-0.3,0.1-0.3,0.3l0,0.4h0.8l-0.1,0.8h-0.7V-173.4z"/>
</g>
</svg>
