<?xml version="1.0" encoding="utf-8"?>
<!-- Generator: Adobe Illustrator 22.1.0, SVG Export Plug-In . SVG Version: 6.00 Build 0)  -->
<svg version="1.1" id="Capa_1" xmlns="http://www.w3.org/2000/svg" xmlns:xlink="http://www.w3.org/1999/xlink" x="0px" y="0px"
	 viewBox="0 0 20 13" style="enable-background:new 0 0 20 13;" xml:space="preserve">
<style type="text/css">
	.st0{fill:#3F6DB5;}
</style>
<g>
	<g>
		<path class="st0" d="M13.9,6.5L13.9,6.5c-0.1,0-0.2-0.2-0.3-0.4c-0.3-0.5-0.7-1.3-1.2-1.9l0,0c-0.4-0.5-0.9-0.8-1.5-0.8
			c-0.2,0-0.4,0-0.6,0.1C9.7,3.7,9.6,4.1,9.6,4.3c0,0.3,0.2,0.9,0.9,1.3l0,0.5c0.3-0.1,0.7-0.3,0.8-0.5c0-0.2-0.1-0.4-0.3-0.5
			c-0.6-0.3-0.7-0.5-0.7-0.6c0-0.4,0.9-0.5,1.6,0.3c0.4,0.5,0.8,1.3,1.1,1.8c0.1,0.2,0.2,0.3,0.2,0.4l-2,4.2
			c-0.2-0.1-0.4-0.1-0.5-0.1c-0.1,0-0.2,0-0.3,0c-0.1,0-0.2,0-0.4,0c-0.1,0-0.2,0-0.3,0c-0.6-0.1-1.6-0.5-2.1-0.8
			C7.5,10.1,7.4,10,7.5,9.8H6.8c0,0.3,0,0.7,0.5,1.1l0,0l0,0c0.1,0.1,1.5,0.8,2.4,0.9c0.1,0,0.2,0,0.3,0c0.2,0,0.3,0,0.4,0
			c0.1,0,0.2,0,0.2,0c0.1,0,0.3,0,0.6,0.1l0.1,0l0,0.1l1.7,0.8l2.5-5.4L13.9,6.5z"/>
		<path class="st0" d="M10.2,8.5V5.9L10,5.8C9.8,5.6,9.6,5.5,9.5,5.3v2.4H5.1V2h4.4v1.6c0.1-0.1,0.3-0.2,0.6-0.3c0,0,0.1,0,0.1,0v-2
			c0-0.5-0.4-1-1-1H5.4c-0.5,0-1,0.4-1,1v7.3c0,0.5,0.4,1,1,1h3.8C9.7,9.5,10.2,9,10.2,8.5z M8.9,1.1c0.1,0,0.2,0.1,0.2,0.2
			S9,1.6,8.9,1.6S8.6,1.5,8.6,1.4S8.7,1.1,8.9,1.1z M6.4,1.2h1.8v0.3H6.4C6.4,1.5,6.4,1.2,6.4,1.2z M7.3,8.7c-0.2,0-0.4-0.2-0.4-0.4
			C6.9,8.1,7.1,8,7.3,8c0.2,0,0.4,0.2,0.4,0.4C7.7,8.5,7.5,8.7,7.3,8.7z"/>
	</g>
</g>
</svg>
