<?xml version="1.0" encoding="utf-8"?>
<!-- Generator: Adobe Illustrator 22.1.0, SVG Export Plug-In . SVG Version: 6.00 Build 0)  -->
<svg version="1.1" xmlns="http://www.w3.org/2000/svg" xmlns:xlink="http://www.w3.org/1999/xlink" x="0px" y="0px"
	 viewBox="0 0 20 13" style="enable-background:new 0 0 20 13;" xml:space="preserve">
<style type="text/css">
	.st0{fill:#60A9DC;}
	.st1{fill:#FFFFFF;}
</style>
<g id="Capa_1">
	<circle class="st0" cx="10" cy="6.5" r="6.4"/>
</g>
<g id="Capa_3">
	<path class="st1" d="M10,5c0,0-0.1-0.6,0.3-1.6s1.8-1,1.8-1s0.5,0,0.7,0.1s0.7,0.5,0.7,0.5s0.8-0.2,1.2-0.4s0,0.5,0,0.5l-0.4,0.5
		l0.7-0.2c0,0,0.2-0.1,0.1,0.2s-0.9,1-0.9,1s-0.1,7-6.6,6.3c-0.2,0-0.5-0.1-0.7-0.1l-0.4-0.1l-0.6-0.2l-0.5-0.3c0,0-0.3-0.3,0-0.2
		l0.2,0H6c0,0,0.9,0.1,2-0.7c0,0-1-0.1-1.6-1.5c0,0-0.1-0.2,0.5-0.1c0,0-1.1-0.5-1.2-2.1c0,0,0.1-0.2,0.2,0c0.1,0.2,0.4,0.1,0.4,0.1
		S5.3,4.5,6,2.9c0,0,0.1-0.1,0.2,0.1C6.2,3,7.6,5,10,5z"/>
</g>
</svg>
